# xmcd CD database file
#
# Track frame offsets:
#	150
#	19453
#	39602
#	66010
#	82506
#	99701
#	117362
#	141687
#	160087
#	175298
#	191758
#	224911
#	246546
#	262844
#	288433
#	309626
#	325264
#
# Disc length: 4572 seconds
#
# Revision: 0
# Processed by: cddbd v1.5.2PL0 Copyright (c) Steve Scherf et al.
# Submitted via: CDex 1.70beta2
#
DISCID=0711da11
DTITLE=PE'Z - PE'Z BEST 1ST STAGE「藍」
DYEAR=2006
DGENRE=Jazz
TTITLE0=Amny (ONITAHIJI Ver.)
TTITLE1=Akatsuki
TTITLE2=BLEED!
TTITLE3=Hale no sola sita～LA YELLOW SAMBA～ (NICO NICO Ver.)
TTITLE4=across you
TTITLE5=Partition No.2
TTITLE6=Peach ～Ashihara story～ (ex.004)
TTITLE7=I'M A SLUGGER
TTITLE8=花咲クDON BLA GO! (Original Ver.)
TTITLE9=INUNIGEL
TTITLE10=Please come here
TTITLE11=C止まり ～SADだけどね～
TTITLE12=タンゴ3兄妹 (SPACY Ver.)
TTITLE13=WONDERFUL DAYS
TTITLE14=T.K.O ～それちょっと早くない?～
TTITLE15=DRY!DRY!DRY! (Original Ver.)
TTITLE16=婆裸夢遊 ～不可能を可能にする男～(ex.015)
EXTD=YEAR: 2006
EXTT0=
EXTT1=
EXTT2=
EXTT3=
EXTT4=
EXTT5=
EXTT6=
EXTT7=
EXTT8=
EXTT9=
EXTT10=
EXTT11=
EXTT12=
EXTT13=
EXTT14=
EXTT15=
EXTT16=
PLAYORDER=
